# xmcd
#
# Track frame offsets: 
#        150
#        20290
#        45470
#        69876
#        95841
#        122664
#        144919
#        167286
#        194308
#        216616
#        241813
#        263126
#        284431
#        305627
#        324661
#
# Disc length: 4505 seconds
#
# Revision: 0
# Processed by: cddbd v1.5.2PL0 Copyright (c) Steve Scherf et al.
# Submitted via: ExactAudioCopyFreeDBPlugin 1.0
#
DISCID=d511970f
DTITLE=Various Artist - Tinh khuc tien chien 1
DYEAR=1900
DGENRE=Pop
TTITLE0=Y lan - Nguyet ca
TTITLE1=Khanh Ha - Tu giong hat em
TTITLE2=Tuan Ngoc - Tren bo moi dau yeu
TTITLE3=Tran Thu Ha - Xin con goi ten nhau
TTITLE4=Tran Thai Hoa - Nhung chieu khong co em
TTITLE5=Vu Khanh - Nho mua thu Hanoi
TTITLE6=The Son - Mot loi cuoi cho em
TTITLE7=Y Lan - Thuong mot nguoi
TTITLE8=Bang Kieu - De mai ben nhau
TTITLE9=Khanh Ly - Ben xuan
TTITLE10=Thai Hien - Ky niem
TTITLE11=Tran Thai Hoa - Duong em di
TTITLE12=Vu Khanh - Doi cho
TTITLE13=Dalena - Tra lai anh
TTITLE14=Khanh Ly - Hoa xuan ca
EXTD=
EXTT0=
EXTT1=
EXTT2=
EXTT3=
EXTT4=
EXTT5=
EXTT6=
EXTT7=
EXTT8=
EXTT9=
EXTT10=
EXTT11=
EXTT12=
EXTT13=
EXTT14=
PLAYORDER=
